<?xml version="1.0" encoding="UTF-8"?>
<svg id="Layer_1" data-name="Layer 1" xmlns="http://www.w3.org/2000/svg" viewBox="0 0 109.83 188.44">
  <defs>
    <style>
      .cls-1 {
        fill: #fff;
      }
    </style>
  </defs>
  <path class="cls-1" d="M91.59,1.07L.59,117.81c-.38.49-.59,1.1-.59,1.72v13.4c0,1.54,1.25,2.79,2.79,2.79h81.32c1.54,0,2.79,1.25,2.79,2.79h0v47.14c0,1.54,1.25,2.79,2.79,2.79h17.35c1.54,0,2.79-1.25,2.79-2.79h0V2.78C109.83,1.24,108.59,0,107.05,0c0,0,0,0-.01,0h-13.24c-.86,0-1.68.39-2.21,1.07ZM30.69,110.39l51.21-65.37c.94-1.22,2.69-1.45,3.91-.51.69.53,1.09,1.36,1.09,2.23v65.37c0,1.54-1.25,2.79-2.79,2.79h-51.22c-1.54,0-2.79-1.25-2.79-2.79,0-.62.21-1.23.59-1.72Z"/>
</svg>